<?xml version="1.0" standalone="no"?>
<!DOCTYPE svg PUBLIC "-//W3C//DTD SVG 20010904//EN"
 "http://www.w3.org/TR/2001/REC-SVG-20010904/DTD/svg10.dtd">
<svg version="1.0" xmlns="http://www.w3.org/2000/svg"
 width="165" height="53" viewBox="0 0 165 53"
 preserveAspectRatio="xMidYMid meet">

<g transform="translate(0.000000,1000.000000) scale(0.100000,-0.100000)"
fill="#000000" stroke="none">
<path d="M0 5000 l0 -5000 5000 0 5000 0 0 5000 0 5000 -5000 0 -5000 0 0
-5000z m2290 1089 c163 -26 259 -108 276 -236 22 -169 -80 -280 -292 -316
l-79 -14 71 -6 c88 -8 203 -46 250 -82 61 -47 86 -96 92 -180 6 -99 -10 -154
-63 -213 -47 -52 -100 -82 -190 -108 -51 -15 -121 -18 -457 -22 -359 -3 -398
-2 -398 12 0 13 13 16 75 16 l75 0 0 565 0 565 -75 0 c-60 0 -75 3 -75 15 0
13 47 15 363 15 203 0 391 -5 427 -11z m1533 -56 c-7 -37 -19 -112 -26 -167
-17 -133 -34 -137 -39 -9 -4 113 -23 164 -72 194 -27 16 -52 19 -183 19 l-153
0 0 -280 0 -280 130 0 130 0 0 80 c0 64 3 80 15 80 13 0 15 -27 15 -180 0
-153 -2 -180 -15 -180 -12 0 -15 16 -15 85 l0 85 -130 0 -130 0 0 -270 0 -270
160 0 159 0 36 32 c20 17 44 47 54 67 18 34 48 147 53 200 2 14 9 27 17 29 11
4 13 -5 7 -44 -3 -27 -9 -109 -13 -181 l-6 -133 -479 0 c-379 0 -479 3 -476
13 3 8 30 13 76 15 l72 3 0 564 0 564 -72 3 c-46 2 -73 7 -76 16 -3 9 99 12
486 12 l490 0 -15 -67z m1232 40 c-12 -48 -33 -175 -40 -246 -11 -101 -29 -81
-35 39 -6 112 -23 154 -73 184 -28 17 -51 20 -179 20 l-148 0 0 -280 0 -280
135 0 135 0 0 80 c0 64 3 80 15 80 13 0 15 -27 15 -180 0 -153 -2 -180 -15
-180 -12 0 -15 16 -15 85 l0 85 -135 0 -135 0 0 -270 0 -270 75 0 c60 0 75 -3
75 -15 0 -13 -42 -15 -321 -15 -252 0 -320 3 -317 13 3 8 30 13 76 15 l72 3 0
564 0 564 -72 3 c-46 2 -73 7 -76 16 -3 9 98 12 483 12 l487 0 -7 -27z m853
15 c-3 -9 -30 -14 -76 -16 l-72 -3 0 -564 0 -565 75 0 c60 0 75 -3 75 -15 0
-13 -42 -15 -321 -15 -252 0 -320 3 -317 13 3 8 30 13 76 15 l72 3 0 564 0
564 -72 3 c-46 2 -73 7 -76 16 -3 9 65 12 318 12 253 0 321 -3 318 -12z m1302
-159 c0 -132 -3 -170 -12 -167 -8 3 -16 33 -19 75 -8 88 -23 135 -56 174 -42
49 -72 59 -183 59 l-100 0 0 -565 0 -565 70 0 c56 0 70 -3 70 -15 0 -13 -42
-15 -315 -15 -273 0 -315 2 -315 15 0 12 15 15 75 15 l75 0 0 565 0 565 -95 0
c-58 0 -108 -5 -128 -14 -70 -29 -127 -131 -127 -230 0 -42 -14 -76 -26 -64
-3 4 -3 82 1 173 l7 165 539 0 539 0 0 -171z m1284 9 c4 -101 3 -165 -4 -172
-12 -12 -15 -2 -28 96 -11 89 -46 159 -95 189 -26 16 -51 19 -139 19 l-108 0
0 -565 0 -565 75 0 c60 0 75 -3 75 -15 0 -13 -42 -15 -315 -15 -273 0 -315 2
-315 15 0 12 14 15 70 15 l70 0 0 565 0 565 -98 0 c-91 0 -101 -2 -144 -29
-58 -37 -87 -95 -100 -202 -7 -51 -15 -78 -22 -76 -6 2 -11 16 -10 30 0 15 1
90 2 167 l2 140 538 0 539 0 7 -162z m-2195 -1408 c46 -27 70 -58 81 -106 l8
-33 -57 -11 c-31 -7 -66 -14 -78 -17 -16 -3 -24 2 -35 24 -27 58 -139 52 -146
-8 -4 -35 9 -44 123 -84 149 -52 195 -100 195 -199 0 -62 -20 -106 -64 -143
-47 -38 -96 -53 -178 -53 -84 0 -155 22 -202 62 -36 32 -72 106 -58 120 10 10
145 38 154 32 4 -3 8 -14 8 -25 0 -31 57 -61 107 -56 48 5 73 21 73 47 0 27
-31 48 -119 80 -136 50 -166 72 -196 142 -21 52 -19 96 8 148 42 83 109 112
243 107 72 -3 100 -9 133 -27z m1375 -4 c146 -72 201 -290 116 -462 -57 -117
-155 -169 -300 -161 -173 9 -268 99 -291 276 -15 117 21 239 91 306 15 14 54
37 86 51 51 21 71 24 150 21 75 -2 100 -8 148 -31z m-6014 -101 l0 -125 130 0
130 0 0 125 0 125 85 0 85 0 0 -320 0 -320 -85 0 -85 0 0 125 0 125 -130 0
-130 0 0 -125 0 -125 -80 0 -80 0 0 320 0 320 80 0 80 0 0 -125z m800 -195 l0
-320 -80 0 -80 0 0 320 0 320 80 0 80 0 0 -320z m700 250 l0 -70 -95 0 -95 0
0 -250 0 -250 -80 0 -80 0 0 250 0 250 -95 0 -95 0 0 70 0 70 270 0 270 0 0
-70z m920 0 l0 -70 -95 0 -95 0 0 -250 0 -250 -80 0 -80 0 0 250 0 250 -95 0
-95 0 0 70 0 70 270 0 270 0 0 -70z m320 -55 l0 -125 130 0 130 0 0 125 0 125
80 0 80 0 0 -320 0 -320 -80 0 -80 0 0 125 0 125 -130 0 -130 0 0 -125 0 -125
-80 0 -80 0 0 320 0 320 80 0 80 0 0 -125z m1060 55 l0 -70 -130 0 -130 0 0
-55 0 -55 105 0 105 0 0 -70 0 -70 -105 0 -105 0 0 -55 0 -55 135 0 135 0 0
-70 0 -70 -215 0 -215 0 0 320 0 320 210 0 210 0 0 -70z m1448 55 c64 -19 117
-64 133 -113 20 -59 15 -160 -9 -209 -37 -71 -123 -113 -232 -113 l-60 0 0
-95 0 -95 -85 0 -85 0 0 320 0 320 143 0 c100 0 159 -5 195 -15z m1592 -55 l0
-70 -95 0 -95 0 0 -250 0 -250 -80 0 -80 0 0 250 0 250 -95 0 -95 0 0 70 0 70
270 0 270 0 0 -70z"/>
<path d="M1990 5804 l0 -266 63 4 c74 4 115 29 143 85 16 32 19 61 19 173 0
118 -3 141 -22 182 -29 63 -70 88 -145 88 l-58 0 0 -266z"/>
<path d="M1990 5226 l0 -286 68 0 c92 1 144 25 174 82 21 39 23 56 23 188 0
132 -2 149 -23 193 -32 63 -86 95 -176 104 l-66 6 0 -287z"/>
<path d="M7451 4413 c-62 -32 -76 -62 -79 -171 -2 -78 1 -104 15 -131 27 -52
66 -76 122 -75 96 1 142 57 148 179 4 84 -19 159 -58 188 -38 28 -106 32 -148
10z"/>
<path d="M6740 4325 l0 -85 49 0 c69 0 96 24 96 85 0 61 -27 85 -96 85 l-49 0
0 -85z"/>
</g>
</svg>
